<?xml version="1.0" encoding="UTF-8" standalone="no"?>
<!DOCTYPE svg PUBLIC "-//W3C//DTD SVG 1.1//EN" "http://www.w3.org/Graphics/SVG/1.1/DTD/svg11.dtd">
<svg version="1.1" xmlns="http://www.w3.org/2000/svg" xmlns:xlink="http://www.w3.org/1999/xlink" preserveAspectRatio="xMidYMid meet" viewBox="0 0 400 400" width="400" height="400"><defs><path d="M386.62 199.12C386.62 302.11 303 385.73 200 385.73C97 385.73 13.38 302.11 13.38 199.12C13.38 96.12 97 12.5 200 12.5C303 12.5 386.62 96.12 386.62 199.12Z" id="b17nL0F1Z"></path><path d="M220.99 93.77L221.2 93.8L221.4 93.84L221.6 93.89L221.79 93.95L221.97 94.02L222.15 94.1L222.32 94.19L222.49 94.28L222.66 94.39L222.82 94.51L222.97 94.63L223.12 94.77L223.27 94.91L223.41 95.06L223.55 95.22L223.68 95.39L223.81 95.56L223.94 95.74L224.06 95.93L224.18 96.12L224.3 96.32L224.41 96.53L224.52 96.75L224.63 96.96L224.74 97.19L224.84 97.42L224.94 97.66L225.04 97.9L225.14 98.14L225.24 98.4L225.34 98.65L225.43 98.91L225.52 99.17L225.62 99.44L225.71 99.71L225.8 99.98L225.89 100.26L225.98 100.54L230.68 118.17L232.16 118.62L235.42 119.78L238.62 121.06L241.75 122.46L244.82 123.98L245.08 124.11L260.92 114.95L261.18 114.81L261.44 114.68L261.7 114.55L261.95 114.43L262.21 114.3L262.46 114.18L262.71 114.07L262.96 113.95L263.2 113.85L263.45 113.74L263.69 113.64L263.93 113.55L264.17 113.46L264.4 113.37L264.63 113.3L264.86 113.22L265.09 113.16L265.32 113.1L265.54 113.04L265.76 113L265.98 112.96L266.19 112.93L266.4 112.91L266.61 112.89L266.82 112.89L267.02 112.89L267.22 112.9L267.42 112.92L267.62 112.95L267.81 112.99L268 113.04L268.18 113.1L268.37 113.17L268.55 113.25L268.72 113.34L268.9 113.45L269.07 113.56L269.23 113.69L269.4 113.83L269.56 113.98L292.61 137.03L292.76 137.2L292.9 137.36L293.03 137.53L293.15 137.7L293.26 137.88L293.36 138.06L293.44 138.25L293.52 138.43L293.58 138.63L293.64 138.82L293.68 139.02L293.72 139.22L293.75 139.42L293.76 139.63L293.77 139.84L293.77 140.05L293.76 140.27L293.75 140.48L293.72 140.7L293.69 140.93L293.64 141.15L293.6 141.38L293.54 141.61L293.48 141.84L293.4 142.07L293.33 142.3L293.24 142.53L293.15 142.77L293.06 143.01L292.95 143.25L292.85 143.49L292.73 143.73L292.61 143.97L292.49 144.21L292.36 144.46L292.23 144.7L292.09 144.94L291.95 145.19L291.8 145.43L291.65 145.68L282.49 161.49L282.68 161.83L284.2 164.9L285.6 168.04L286.88 171.24L288.03 174.5L288.49 175.98L306.12 180.67L306.4 180.74L306.67 180.81L306.95 180.88L307.22 180.96L307.48 181.03L307.75 181.11L308.01 181.2L308.26 181.28L308.51 181.37L308.76 181.47L309 181.56L309.24 181.66L309.47 181.77L309.69 181.87L309.91 181.98L310.13 182.1L310.33 182.22L310.54 182.34L310.73 182.46L310.92 182.59L311.1 182.72L311.27 182.86L311.44 183L311.6 183.15L311.75 183.3L311.89 183.45L312.02 183.61L312.15 183.77L312.27 183.94L312.37 184.11L312.47 184.29L312.56 184.47L312.64 184.66L312.71 184.85L312.77 185.05L312.82 185.25L312.86 185.46L312.88 185.67L312.9 185.88L312.91 186.11L312.91 218.7L312.9 218.92L312.88 219.14L312.86 219.35L312.82 219.55L312.77 219.75L312.71 219.94L312.64 220.12L312.56 220.3L312.47 220.48L312.37 220.65L312.27 220.81L312.15 220.97L312.02 221.12L311.89 221.27L311.75 221.42L311.6 221.56L311.44 221.7L311.27 221.83L311.1 221.96L310.92 222.09L310.73 222.21L310.54 222.33L310.33 222.45L310.13 222.56L309.91 222.67L309.69 222.78L309.47 222.89L309.24 222.99L309 223.09L308.76 223.19L308.51 223.29L308.26 223.39L308.01 223.49L307.75 223.58L307.48 223.68L307.22 223.77L306.95 223.86L306.67 223.95L306.4 224.04L306.12 224.14L288.49 228.83L288.03 230.31L286.88 233.57L285.6 236.77L284.2 239.9L282.68 242.98L282.51 243.28L291.65 259.07L291.8 259.31L291.95 259.56L292.09 259.8L292.23 260.05L292.36 260.29L292.49 260.53L292.61 260.77L292.73 261.02L292.85 261.26L292.95 261.5L293.06 261.74L293.15 261.97L293.24 262.21L293.33 262.44L293.4 262.68L293.48 262.91L293.54 263.14L293.6 263.37L293.64 263.59L293.69 263.82L293.72 264.04L293.75 264.26L293.76 264.48L293.77 264.69L293.77 264.9L293.76 265.11L293.75 265.32L293.72 265.53L293.68 265.73L293.64 265.92L293.58 266.12L293.52 266.31L293.44 266.5L293.36 266.68L293.26 266.86L293.15 267.04L293.03 267.21L292.9 267.38L292.76 267.55L292.61 267.71L269.56 290.76L269.4 290.91L269.23 291.05L269.07 291.18L268.9 291.3L268.72 291.4L268.55 291.49L268.37 291.57L268.18 291.65L268 291.71L267.81 291.76L267.62 291.8L267.42 291.83L267.22 291.85L267.02 291.86L266.82 291.86L266.61 291.85L266.4 291.84L266.19 291.81L265.98 291.78L265.76 291.75L265.54 291.7L265.32 291.65L265.09 291.59L264.86 291.52L264.63 291.45L264.4 291.37L264.17 291.29L263.93 291.2L263.69 291.1L263.45 291L263.2 290.9L262.96 290.79L262.71 290.68L262.46 290.56L262.21 290.44L261.95 290.32L261.7 290.19L261.44 290.06L261.18 289.93L260.92 289.8L245.13 280.66L244.82 280.83L241.75 282.35L238.62 283.75L235.42 285.03L232.16 286.19L230.68 286.64L225.98 304.27L225.89 304.55L225.8 304.82L225.71 305.1L225.62 305.37L225.52 305.64L225.43 305.9L225.34 306.16L225.24 306.41L225.14 306.66L225.04 306.91L224.94 307.15L224.84 307.39L224.74 307.62L224.63 307.84L224.52 308.06L224.41 308.28L224.3 308.49L224.18 308.69L224.06 308.88L223.94 309.07L223.81 309.25L223.68 309.42L223.55 309.59L223.41 309.75L223.27 309.9L223.12 310.04L222.97 310.18L222.82 310.3L222.66 310.42L222.49 310.53L222.32 310.62L222.15 310.71L221.97 310.79L221.79 310.86L221.6 310.92L221.4 310.97L221.2 311.01L220.99 311.04L220.77 311.05L220.55 311.06L187.95 311.06L187.73 311.05L187.52 311.04L187.3 311.01L187.1 310.97L186.9 310.92L186.7 310.86L186.51 310.79L186.32 310.71L186.14 310.62L185.96 310.53L185.79 310.42L185.62 310.3L185.46 310.18L185.3 310.04L185.15 309.9L185 309.75L184.85 309.59L184.71 309.42L184.57 309.25L184.44 309.07L184.31 308.88L184.19 308.69L184.06 308.49L183.95 308.28L183.83 308.06L183.72 307.84L183.62 307.62L183.51 307.39L183.41 307.15L183.32 306.91L183.22 306.66L183.13 306.41L183.05 306.16L182.96 305.9L182.88 305.64L182.8 305.37L182.73 305.1L182.66 304.82L182.59 304.55L182.52 304.27L177.82 286.64L176.35 286.19L173.09 285.03L169.89 283.75L166.75 282.35L163.68 280.83L163.31 280.63L147.59 289.73L147.35 289.89L147.1 290.03L146.86 290.17L146.61 290.31L146.37 290.45L146.13 290.58L145.88 290.7L145.64 290.82L145.4 290.93L145.16 291.04L144.92 291.14L144.68 291.24L144.45 291.33L144.21 291.41L143.98 291.49L143.75 291.56L143.52 291.63L143.29 291.68L143.06 291.73L142.84 291.77L142.62 291.81L142.4 291.83L142.18 291.85L141.97 291.86L141.75 291.86L141.54 291.85L141.34 291.83L141.13 291.81L140.93 291.77L140.73 291.73L140.54 291.67L140.35 291.6L140.16 291.53L139.97 291.44L139.79 291.35L139.62 291.24L139.44 291.12L139.27 290.99L139.11 290.85L138.95 290.69L115.9 267.65L115.75 267.48L115.61 267.32L115.48 267.15L115.36 266.98L115.26 266.81L115.16 266.63L115.08 266.45L115.01 266.27L114.95 266.08L114.9 265.89L114.86 265.7L114.83 265.51L114.81 265.31L114.8 265.11L114.8 264.9L114.8 264.7L114.82 264.49L114.84 264.28L114.87 264.06L114.91 263.85L114.96 263.63L115.01 263.4L115.07 263.18L115.14 262.95L115.21 262.72L115.29 262.49L115.37 262.25L115.46 262.02L115.56 261.78L115.66 261.54L115.76 261.29L115.87 261.05L115.98 260.8L116.1 260.55L116.22 260.29L116.34 260.04L116.47 259.78L116.59 259.52L116.73 259.26L116.86 259L125.98 243.25L125.82 242.98L124.31 239.9L122.91 236.77L121.63 233.57L120.47 230.31L120.02 228.83L102.39 224.14L102.11 224.04L101.83 223.95L101.56 223.86L101.29 223.77L101.02 223.68L100.76 223.58L100.5 223.49L100.24 223.39L99.99 223.29L99.75 223.19L99.51 223.09L99.27 222.99L99.04 222.89L98.81 222.78L98.59 222.67L98.38 222.56L98.17 222.45L97.97 222.33L97.78 222.21L97.59 222.09L97.41 221.96L97.23 221.83L97.07 221.7L96.91 221.56L96.76 221.42L96.62 221.27L96.48 221.12L96.36 220.97L96.24 220.81L96.13 220.65L96.03 220.48L95.94 220.3L95.87 220.12L95.8 219.94L95.74 219.75L95.69 219.55L95.65 219.35L95.62 219.14L95.6 218.92L95.6 218.7L95.6 186.11L95.6 185.88L95.62 185.67L95.65 185.46L95.69 185.25L95.74 185.05L95.8 184.85L95.87 184.66L95.94 184.47L96.03 184.29L96.13 184.11L96.24 183.94L96.36 183.77L96.48 183.61L96.62 183.45L96.76 183.3L96.91 183.15L97.07 183L97.23 182.86L97.41 182.72L97.59 182.59L97.78 182.46L97.97 182.34L98.17 182.22L98.38 182.1L98.59 181.98L98.81 181.87L99.04 181.77L99.27 181.66L99.51 181.56L99.75 181.47L99.99 181.37L100.24 181.28L100.5 181.2L100.76 181.11L101.02 181.03L101.29 180.96L101.56 180.88L101.83 180.81L102.11 180.74L102.39 180.67L120.02 175.98L120.47 174.5L121.63 171.24L122.91 168.04L124.31 164.9L125.82 161.83L126 161.52L116.86 145.74L116.73 145.48L116.59 145.22L116.47 144.96L116.34 144.7L116.22 144.45L116.1 144.2L115.98 143.95L115.87 143.7L115.76 143.45L115.66 143.21L115.56 142.97L115.46 142.73L115.37 142.49L115.29 142.26L115.21 142.02L115.14 141.79L115.07 141.57L115.01 141.34L114.96 141.12L114.91 140.9L114.87 140.68L114.84 140.47L114.82 140.26L114.8 140.05L114.8 139.84L114.8 139.64L114.81 139.44L114.83 139.24L114.86 139.04L114.9 138.85L114.95 138.66L115.01 138.47L115.08 138.29L115.16 138.11L115.26 137.93L115.36 137.76L115.48 137.59L115.61 137.42L115.75 137.26L115.9 137.1L138.95 114.05L139.11 113.9L139.27 113.76L139.44 113.63L139.62 113.51L139.79 113.4L139.97 113.3L140.16 113.22L140.35 113.14L140.54 113.07L140.73 113.02L140.93 112.97L141.13 112.94L141.34 112.91L141.54 112.89L141.75 112.89L141.97 112.89L142.18 112.89L142.4 112.91L142.62 112.94L142.84 112.97L143.06 113.01L143.29 113.06L143.52 113.12L143.75 113.18L143.98 113.25L144.21 113.33L144.45 113.41L144.68 113.5L144.92 113.6L145.16 113.7L145.4 113.81L145.64 113.92L145.88 114.04L146.13 114.17L146.37 114.3L146.61 114.43L146.86 114.57L147.1 114.71L147.35 114.86L147.59 115.01L163.37 124.15L163.68 123.98L166.75 122.46L169.89 121.06L173.09 119.78L176.35 118.62L177.82 118.17L182.52 100.54L182.59 100.26L182.66 99.98L182.73 99.71L182.8 99.44L182.88 99.17L182.96 98.91L183.05 98.65L183.13 98.4L183.22 98.14L183.32 97.9L183.41 97.66L183.51 97.42L183.62 97.19L183.72 96.96L183.83 96.75L183.95 96.53L184.06 96.32L184.19 96.12L184.31 95.93L184.44 95.74L184.57 95.56L184.71 95.39L184.85 95.22L185 95.06L185.15 94.91L185.3 94.77L185.46 94.63L185.62 94.51L185.79 94.39L185.96 94.28L186.14 94.19L186.32 94.1L186.51 94.02L186.7 93.95L186.9 93.89L187.1 93.84L187.3 93.8L187.52 93.77L187.73 93.76L187.95 93.75L220.55 93.75L220.77 93.76L220.99 93.77ZM200.35 155.03L198.44 155.22L196.54 155.49L194.67 155.83L192.83 156.25L191.01 156.74L189.23 157.29L187.47 157.91L185.75 158.6L184.06 159.36L182.41 160.17L180.79 161.05L179.21 161.99L177.67 162.99L176.18 164.04L174.73 165.15L173.32 166.31L171.95 167.53L170.64 168.79L169.37 170.11L168.16 171.47L167 172.88L165.89 174.33L164.84 175.83L163.84 177.36L162.9 178.94L162.02 180.56L161.21 182.21L160.45 183.9L159.76 185.62L159.14 187.38L158.58 189.17L158.1 190.98L157.68 192.82L157.34 194.69L157.07 196.59L156.87 198.51L156.76 200.45L156.72 202.4L156.76 204.36L156.87 206.3L157.07 208.22L157.34 210.12L157.68 211.98L158.1 213.83L158.58 215.64L159.14 217.43L159.76 219.19L160.45 220.91L161.21 222.6L162.02 224.25L162.9 225.87L163.84 227.44L164.84 228.98L165.89 230.48L167 231.93L168.16 233.34L169.37 234.7L170.64 236.02L171.95 237.28L173.32 238.5L174.73 239.66L176.18 240.77L177.67 241.82L179.21 242.82L180.79 243.76L182.41 244.64L184.06 245.45L185.75 246.21L187.47 246.89L189.23 247.52L191.01 248.07L192.83 248.56L194.67 248.98L196.54 249.32L198.44 249.59L200.35 249.78L202.29 249.9L204.25 249.94L206.21 249.9L208.15 249.78L210.07 249.59L211.96 249.32L213.83 248.98L215.68 248.56L217.49 248.07L219.28 247.52L221.03 246.89L222.76 246.21L224.45 245.45L226.1 244.64L227.72 243.76L229.29 242.82L230.83 241.82L232.33 240.77L233.78 239.66L235.19 238.5L236.55 237.28L237.87 236.02L239.13 234.7L240.35 233.34L241.51 231.93L242.62 230.48L243.67 228.98L244.67 227.44L245.61 225.87L246.48 224.25L247.3 222.6L248.05 220.91L248.74 219.19L249.37 217.43L249.92 215.64L250.41 213.83L250.82 211.98L251.17 210.12L251.44 208.22L251.63 206.3L251.75 204.36L251.79 202.4L251.75 200.45L251.63 198.51L251.44 196.59L251.17 194.69L250.82 192.82L250.41 190.98L249.92 189.17L249.37 187.38L248.74 185.62L248.05 183.9L247.3 182.21L246.48 180.56L245.61 178.94L244.67 177.36L243.67 175.83L242.62 174.33L241.51 172.88L240.35 171.47L239.13 170.11L237.87 168.79L236.55 167.53L235.19 166.31L233.78 165.15L232.33 164.04L230.83 162.99L229.29 161.99L227.72 161.05L226.1 160.17L224.45 159.36L222.76 158.6L221.03 157.91L219.28 157.29L217.49 156.74L215.68 156.25L213.83 155.83L211.96 155.49L210.07 155.22L208.15 155.03L206.21 154.91L204.25 154.87L202.29 154.91L200.35 155.03Z" id="b1HNz2379z"></path></defs><g><g><g><use xlink:href="#b17nL0F1Z" opacity="1" fill="#ffffff" fill-opacity="1"></use><g><use xlink:href="#b17nL0F1Z" opacity="1" fill-opacity="0" stroke="#000000" stroke-width="10" stroke-opacity="1"></use></g></g><g><use xlink:href="#b1HNz2379z" opacity="1" fill="#000000" fill-opacity="1"></use></g></g></g></svg>