<?xml version="1.0" encoding="UTF-8" standalone="no"?>
<!DOCTYPE svg PUBLIC "-//W3C//DTD SVG 1.1//EN" "http://www.w3.org/Graphics/SVG/1.1/DTD/svg11.dtd">
<svg version="1.1" xmlns="http://www.w3.org/2000/svg" xmlns:xlink="http://www.w3.org/1999/xlink" preserveAspectRatio="xMidYMid meet" viewBox="0 0 400 400" width="400" height="400"><defs><path d="M386.62 197.66C386.62 300.66 303 384.28 200 384.28C97 384.28 13.38 300.66 13.38 197.66C13.38 94.67 97 11.05 200 11.05C303 11.05 386.62 94.67 386.62 197.66Z" id="ap7uPCXtg"></path><path d="M241.2 87.68L241.2 87.36L241.22 87.04L241.25 86.72L241.3 86.41L241.36 86.1L241.42 85.8L241.5 85.5L241.6 85.21L241.7 84.92L241.81 84.63L241.94 84.36L242.07 84.08L242.22 83.82L242.37 83.56L242.54 83.3L242.71 83.06L242.89 82.82L243.08 82.59L243.28 82.36L243.49 82.14L243.71 81.94L243.93 81.74L244.17 81.54L244.41 81.36L244.65 81.19L244.91 81.02L245.17 80.87L245.43 80.72L245.7 80.59L245.98 80.46L246.27 80.35L246.56 80.25L246.85 80.16L247.15 80.08L247.45 80.01L247.76 79.95L248.07 79.91L248.39 79.87L248.71 79.86L249.03 79.85L280.36 79.85L280.69 79.86L281.01 79.87L281.32 79.91L281.63 79.95L281.94 80.01L282.25 80.08L282.55 80.16L282.84 80.25L283.13 80.35L283.41 80.46L283.69 80.59L283.96 80.72L284.23 80.87L284.49 81.02L284.74 81.19L284.99 81.36L285.23 81.54L285.46 81.74L285.69 81.94L285.9 82.14L286.11 82.36L286.31 82.59L286.5 82.82L286.69 83.06L286.86 83.3L287.02 83.56L287.18 83.82L287.32 84.08L287.46 84.36L287.58 84.63L287.7 84.92L287.8 85.21L287.89 85.5L287.97 85.8L288.04 86.1L288.1 86.41L288.14 86.72L288.17 87.04L288.19 87.36L288.2 87.68L288.2 169.94L319.53 205.19L288.2 205.19L288.2 314.86L218.45 314.86L218.45 314.84L218.45 314.49L218.45 238.4L218.45 238.06L218.43 237.71L218.39 237.37L218.35 237.03L218.29 236.7L218.22 236.37L218.14 236.05L218.04 235.73L217.94 235.42L217.82 235.11L217.69 234.81L217.55 234.52L217.4 234.23L217.24 233.95L217.07 233.68L216.89 233.41L216.7 233.15L216.51 232.9L216.3 232.66L216.08 232.43L215.86 232.2L215.63 231.99L215.39 231.78L215.14 231.58L214.89 231.39L214.63 231.22L214.36 231.05L214.08 230.89L213.8 230.75L213.51 230.61L213.22 230.49L212.92 230.38L212.62 230.28L212.31 230.2L212 230.12L211.68 230.06L211.36 230.01L211.03 229.98L210.7 229.96L210.37 229.95L178.02 229.95L177.69 229.96L177.36 229.98L177.03 230.01L176.71 230.06L176.39 230.12L176.08 230.2L175.77 230.28L175.47 230.38L175.17 230.49L174.88 230.61L174.59 230.75L174.31 230.89L174.03 231.05L173.76 231.22L173.5 231.39L173.25 231.58L173 231.78L172.76 231.99L172.53 232.2L172.31 232.43L172.09 232.66L171.88 232.9L171.69 233.15L171.5 233.41L171.32 233.68L171.15 233.95L170.99 234.23L170.84 234.52L170.7 234.81L170.57 235.11L170.46 235.42L170.35 235.73L170.25 236.05L170.17 236.37L170.1 236.7L170.04 237.03L170 237.37L169.96 237.71L169.94 238.06L169.94 238.4L169.94 314.49L169.94 314.84L169.94 314.86L100.19 314.86L100.19 205.19L68.86 205.19L194.2 64.18L241.2 117.06L241.2 87.68Z" id="b6qd1X5z6z"></path></defs><g><g><g><use xlink:href="#ap7uPCXtg" opacity="1" fill="#ffffff" fill-opacity="1"></use><g><use xlink:href="#ap7uPCXtg" opacity="1" fill-opacity="0" stroke="#000000" stroke-width="10" stroke-opacity="1"></use></g></g><g><use xlink:href="#b6qd1X5z6z" opacity="1" fill="#000000" fill-opacity="1"></use><g><use xlink:href="#b6qd1X5z6z" opacity="1" fill-opacity="0" stroke="#4bebc1" stroke-width="0" stroke-opacity="1"></use></g></g></g></g></svg>